# xmcd
#
# Track frame offsets: 
#        183
#        13108
#        29850
#        51850
#        81823
#        100600
#        118188
#        148688
#        172755
#        196835
#        213310
#        228463
#        250115
#        262730
#
# Disc length: 3830 seconds
#
# Revision: 3
# Processed by: cddbd v1.5.2PL0 Copyright (c) Steve Scherf et al.
# Submitted via: ExactAudioCopyFreeDBPlugin 1.0
#
DISCID=b80ef40e
DTITLE=Omar and The Howlers - Live At Paradiso
DYEAR=1992
DGENRE=Blues
TTITLE0=Shake For Me (live)
TTITLE1=Don't You Know (live)
TTITLE2=Mississippi Hoo Doo Man (live)
TTITLE3=Lee Anne (live)
TTITLE4=Leave Here Running (live)
TTITLE5=Border Girl (live)
TTITLE6=Born On The Bayou (live)
TTITLE7=Magic Man (live)
TTITLE8=Sleeping In The Ground (live)
TTITLE9=Big Round World (live)
TTITLE10=Don't Rock Me The Wrong Way (live)
TTITLE11=Hard Times In The Land Of Plenty (live)
TTITLE12=Big Chief Pontiac (live)
TTITLE13=Rock and Roll Ball (live)
EXTD=Label: Provogue Music Productions\nPRD 70352
EXTT0=
EXTT1=
EXTT2=
EXTT3=
EXTT4=
EXTT5=
EXTT6=
EXTT7=
EXTT8=
EXTT9=
EXTT10=
EXTT11=
EXTT12=
EXTT13=
PLAYORDER=
